<svg width="18" height="24" viewBox="0 0 18 24" fill="none" xmlns="http://www.w3.org/2000/svg">
<path d="M5.04775 16.7344C2.97275 16.7344 1.59933 18.4083 1.30311 20.4776L0.90625 23.2499H17.0952L16.6318 20.4776C16.2888 18.4324 14.9607 16.7344 12.8871 16.7344H5.04775Z" fill="#55A1FF"/>
<path d="M7.21626 14.2402V17.5001C7.21626 18.4809 8.00573 19.2704 8.98653 19.2704C9.96734 19.2704 10.7582 18.4809 10.7582 17.4987V14.2402C10.2077 14.5137 9.60127 14.656 8.98653 14.656C8.3718 14.656 7.76541 14.5137 7.21484 14.2402H7.21626Z" fill="#FFC6CD"/>
<path d="M15.5701 5.8366C15.5701 9.07666 11.9488 12.4981 8.71013 12.4981C5.34109 12.3989 2.46387 9.63368 2.46387 4.26334C3.53397 2.84599 5.93213 0.707208 8.7073 0.76532C11.7688 0.831935 13.3562 1.56329 13.3562 3.6227C14.5525 3.30238 15.5701 4.43059 15.5701 5.8366Z" fill="#666666"/>
<path d="M10.7568 14.2402C10.2068 14.5138 9.6009 14.6564 8.98657 14.6569C8.90153 14.6569 8.81649 14.647 8.73145 14.6428C8.54126 14.6662 8.36724 14.7615 8.24499 14.9091C8.12274 15.0566 8.06151 15.2453 8.07382 15.4366C8.08613 15.6278 8.17106 15.8071 8.31123 15.9378C8.4514 16.0684 8.6362 16.1406 8.82783 16.1395C9.30122 16.1508 9.97588 16.087 10.7568 15.8319V14.2402Z" fill="#FFAECD"/>
<path d="M12.1187 7.01855C12.1187 8.39197 12.1045 9.83058 12.1045 11.2267H13.2965C14.463 11.2267 15.3998 10.2884 15.3998 9.1219C15.3998 7.95684 14.463 7.01855 13.2965 7.01855H12.1187Z" fill="#55A1FF"/>
<path d="M10.6806 5.3079C10.1548 5.30365 9.86422 5.48082 9.53964 5.84366C8.67931 6.74368 7.51708 7.23975 6.01611 7.08101C5.00979 6.85706 4.66679 8.34812 5.68303 8.51253C7.527 8.7223 9.21365 8.35662 10.6097 6.96337C10.6338 6.93927 10.7146 6.87266 10.7685 6.87266C11.1271 6.86982 11.5381 6.87266 11.5381 6.87266C12.5388 6.88258 12.5529 5.31782 11.5523 5.3079C11.2362 5.3079 10.9556 5.30507 10.6806 5.3079Z" fill="#4D4D4D"/>
<path d="M10.5384 6.46875C9.66677 7.46657 7.88516 8.83998 4.98243 8.06185V10.9221C4.98149 11.4455 5.08392 11.9639 5.28383 12.4476C5.48374 12.9314 5.7772 13.3708 6.14737 13.7409C6.51754 14.1109 6.95713 14.4042 7.44093 14.604C7.92472 14.8037 8.4432 14.9059 8.9666 14.9048C9.49001 14.9059 10.0085 14.8037 10.4923 14.604C10.9761 14.4042 11.4157 14.1109 11.7858 13.7409C12.156 13.3708 12.4495 12.9314 12.6494 12.4476C12.8493 11.9639 12.9517 11.4455 12.9508 10.9221V6.46875H10.5384Z" fill="#FFC6CD"/>
<path d="M7.65607 22.0254C7.51009 22.0257 7.36734 22.0685 7.2453 22.1485C7.12325 22.2286 7.02718 22.3426 6.96884 22.4764C6.9105 22.6102 6.89242 22.7581 6.9168 22.9021C6.94119 23.046 7.00698 23.1797 7.10614 23.2868H17.1268L16.9156 22.0254H7.65607Z" fill="#488BFF"/>
<path d="M14.5748 10.8315C14.3718 10.9819 14.1432 11.0943 13.9002 11.1632L14.5096 12.4572H9.43126C9.33165 12.4572 9.23611 12.4968 9.16567 12.5673C9.09524 12.6377 9.05566 12.7332 9.05566 12.8328C9.05566 12.9325 9.09524 13.028 9.16567 13.0984C9.23611 13.1689 9.33165 13.2084 9.43126 13.2084H15.1007C15.1638 13.2084 15.2259 13.1924 15.2812 13.1621C15.3366 13.1317 15.3834 13.0878 15.4173 13.0345C15.4512 12.9813 15.4711 12.9203 15.4752 12.8573C15.4793 12.7943 15.4675 12.7313 15.4408 12.6741L14.5748 10.8315Z" fill="#666666"/>
</svg>
