<svg width="117" height="116" viewBox="0 0 117 116" fill="none" xmlns="http://www.w3.org/2000/svg">
<g clip-path="url(#clip0_34649_14594)">
<path d="M96.9366 96.4484C118.171 75.2137 118.171 40.7853 96.9366 19.5506C75.7019 -1.68418 41.2735 -1.68418 20.0388 19.5506C-1.19598 40.7853 -1.19598 75.2137 20.0388 96.4484C41.2735 117.683 75.7019 117.683 96.9366 96.4484Z" fill="#20B055"/>
<path fill-rule="evenodd" clip-rule="evenodd" d="M111.331 70.905C105.888 93.2604 86.6304 110.203 63.1112 112.179L36.8716 85.939C35.5732 84.8662 34.7422 83.2452 34.7422 81.4393V52.6309C34.7422 49.4201 37.3687 46.7935 40.5789 46.7935H46.6449L43.4932 43.6418V39.2501C43.4932 30.9958 50.2456 24.2422 58.5007 24.2422C62.8862 24.2422 66.8479 26.1483 69.5984 29.1729L111.331 70.905Z" fill="#08692C"/>
<path fill-rule="evenodd" clip-rule="evenodd" d="M58.4999 57.4019C55.7055 57.4019 53.4385 59.6668 53.4385 62.4626C53.4385 64.2253 54.3393 65.7761 55.7055 66.6837L53.5411 75.8617C53.5165 75.9579 53.5149 76.0585 53.5363 76.1554C53.5578 76.2523 53.6017 76.3427 53.6646 76.4195C53.7252 76.4981 53.8032 76.5615 53.8926 76.6046C53.982 76.6477 54.0802 76.6694 54.1794 76.6678H62.8205C63.0275 76.6678 63.2065 76.5813 63.3352 76.4195C63.3979 76.3427 63.4417 76.2522 63.4631 76.1553C63.4845 76.0584 63.4828 75.9579 63.4582 75.8617L61.2946 66.6837C62.6601 65.7761 63.5609 64.2253 63.5609 62.4626C63.5606 59.667 61.2957 57.4019 58.4999 57.4019ZM40.5779 46.7935H76.421C79.6319 46.7935 82.2584 49.4198 82.2584 52.6309V81.4392C82.2584 84.6496 79.6319 87.2759 76.421 87.2759H40.5779C37.3677 87.2759 34.7412 84.6494 34.7412 81.4392V52.6309C34.7412 49.4201 37.3677 46.7935 40.5779 46.7935ZM66.4788 43.6418V39.2501C66.4788 34.8745 62.8742 31.2713 58.4999 31.2713C54.1254 31.2713 50.5204 34.8745 50.5204 39.2501V43.6418H43.4924V39.2501C43.4924 30.9958 50.2449 24.2422 58.4999 24.2422C66.7549 24.2422 73.5085 30.9958 73.5085 39.2501V43.6418H66.4788Z" fill="white"/>
</g>
<defs>
<clipPath id="clip0_34649_14594">
<rect width="116" height="116" fill="white" transform="translate(0.5)"/>
</clipPath>
</defs>
</svg>
