<svg width="24" height="24" viewBox="0 0 24 24" fill="none" xmlns="http://www.w3.org/2000/svg">
<g clip-path="url(#clip0_35001_1225)">
<path d="M21.4781 21.9327L23.5922 24H16.2188C11.9438 24 8.48438 20.4937 8.48438 16.2188C8.48438 12.0141 11.9156 8.48438 16.2188 8.48438C20.4937 8.48438 24 11.9438 24 16.2188C24 18.3422 23.0673 20.4421 21.4781 21.9327Z" fill="#FFDA2D"/>
<path d="M21.4781 21.9327L23.5922 24H16.2188V8.48438C20.4937 8.48438 24 11.9438 24 16.2188C24 18.3422 23.0673 20.4421 21.4781 21.9327Z" fill="#FDBF00"/>
<path d="M7.78125 0C3.52022 0 0 3.52022 0 7.78125C0 9.94687 0.9 11.9718 2.48916 13.4343L0.407766 15.5156H7.78125C12.0423 15.5156 15.5156 12.0421 15.5156 7.78125C15.5156 3.52022 12.0423 0 7.78125 0Z" fill="#FF641A"/>
<path d="M15.5156 7.78125C15.5156 12.0421 12.0423 15.5156 7.78125 15.5156V0C12.0423 0 15.5156 3.52022 15.5156 7.78125Z" fill="#F03800"/>
<path d="M9.5251 4.26562C8.72363 4.26562 8.16113 4.64522 7.78135 5.06728C7.40157 4.64522 6.83926 4.26562 6.0376 4.26562C4.65957 4.26562 3.59082 5.40469 3.59082 6.86719C3.59082 8.76562 5.65787 10.1016 7.3172 11.5499L7.78135 11.9438L8.24551 11.5499C10.1299 9.90473 11.9719 8.72353 11.9719 6.86719C11.9719 5.40469 10.9032 4.26562 9.5251 4.26562Z" fill="#F2F2F2"/>
<path d="M15.5156 15.5156H16.9219V16.9219H15.5156V15.5156Z" fill="#596C76"/>
<path d="M18.3281 15.5156H19.7344V16.9219H18.3281V15.5156Z" fill="#465A61"/>
<path d="M12.7031 15.5156H14.1094V16.9219H12.7031V15.5156Z" fill="#596C76"/>
<path d="M11.9718 6.86719C11.9718 8.72334 10.1296 9.90469 8.24522 11.5499L7.78125 11.9438V5.06719C8.16103 4.64527 8.72334 4.26562 9.525 4.26562C10.903 4.26562 11.9718 5.40469 11.9718 6.86719Z" fill="#E7E7F2"/>
<path d="M16.2188 15.5156H16.9219V16.9219H16.2188V15.5156Z" fill="#465A61"/>
</g>
<defs>
<clipPath id="clip0_35001_1225">
<rect width="24" height="24" fill="white"/>
</clipPath>
</defs>
</svg>
