<svg width="61" height="60" viewBox="0 0 61 60" fill="none" xmlns="http://www.w3.org/2000/svg">
<path d="M30.5 60C47.0685 60 60.5 46.5685 60.5 30C60.5 13.4315 47.0685 0 30.5 0C13.9315 0 0.5 13.4315 0.5 30C0.5 46.5685 13.9315 60 30.5 60Z" fill="#FF3356"/>
<path fill-rule="evenodd" clip-rule="evenodd" d="M60.4949 29.5699C60.4969 29.7131 60.5004 29.856 60.5004 29.9998C60.5004 46.5683 47.0689 59.9998 30.5004 59.9998C30.343 59.9998 30.1865 59.9963 30.0297 59.9938L18.9468 48.9108C18.7505 48.7427 18.5901 48.5368 18.4752 48.3053C18.3602 48.0738 18.2931 47.8216 18.2778 47.5636L16.7282 22.1489H16.9224L14.739 19.9655C14.6809 19.9076 14.6348 19.8388 14.6033 19.763C14.5718 19.6872 14.5556 19.6059 14.5557 19.5239V16.3039C14.5557 15.2418 15.4219 14.3756 16.4839 14.3756H24.6088V12.799C24.6088 11.6013 25.5857 10.6245 26.7833 10.6245H34.2175C34.8538 10.6245 35.4278 10.9001 35.826 11.3383L38.8634 14.3756H44.5169C45.1143 14.3756 45.6498 14.6498 46.0039 15.0786L60.4949 29.5699Z" fill="#DC143C"/>
<path fill-rule="evenodd" clip-rule="evenodd" d="M24.2399 27.3046C24.5052 27.3046 24.7595 27.41 24.947 27.5975C25.1346 27.7851 25.2399 28.0394 25.2399 28.3046V41.0028C25.2399 41.268 25.1346 41.5223 24.947 41.7099C24.7595 41.8974 24.5052 42.0028 24.2399 42.0028C23.9747 42.0028 23.7204 41.8974 23.5328 41.7099C23.3453 41.5223 23.2399 41.268 23.2399 41.0028V28.3046C23.2399 28.0394 23.3453 27.7851 23.5328 27.5975C23.7204 27.41 23.9747 27.3046 24.2399 27.3046ZM29.4996 28.3046C29.4996 28.0394 29.6049 27.7851 29.7925 27.5975C29.98 27.41 30.2343 27.3046 30.4996 27.3046C30.7648 27.3046 31.0191 27.41 31.2067 27.5975C31.3942 27.7851 31.4996 28.0394 31.4996 28.3046V41.0028C31.4996 41.268 31.3942 41.5223 31.2067 41.7099C31.0191 41.8974 30.7648 42.0028 30.4996 42.0028C30.2343 42.0028 29.98 41.8974 29.7925 41.7099C29.6049 41.5223 29.4996 41.268 29.4996 41.0028V28.3046ZM35.7592 28.3046C35.7592 28.0394 35.8645 27.7851 36.0521 27.5975C36.2396 27.41 36.494 27.3046 36.7592 27.3046C37.0244 27.3046 37.2788 27.41 37.4663 27.5975C37.6538 27.7851 37.7592 28.0394 37.7592 28.3046V41.0028C37.7592 41.268 37.6538 41.5223 37.4663 41.7099C37.2788 41.8974 37.0244 42.0028 36.7592 42.0028C36.494 42.0028 36.2396 41.8974 36.0521 41.7099C35.8645 41.5223 35.7592 41.268 35.7592 41.0028V28.3046ZM16.7273 22.1493L18.2769 47.564C18.3063 48.0543 18.522 48.5149 18.8797 48.8516C19.2375 49.1882 19.7103 49.3754 20.2016 49.3749H40.7974C41.2887 49.3754 41.7615 49.1882 42.1193 48.8516C42.4771 48.515 42.6927 48.0544 42.7221 47.564L44.2717 22.1493H16.7273ZM16.4831 14.3761H24.6079V12.7995C24.6079 11.6018 25.5848 10.625 26.7824 10.625H34.2167C35.4143 10.625 36.3912 11.6018 36.3912 12.7995V14.3761H44.5159C45.5781 14.3761 46.4442 15.2424 46.4442 16.3044V19.5244C46.4442 19.8686 46.1634 20.1494 45.8192 20.1494H15.1797C15.014 20.149 14.8553 20.0831 14.7381 19.966C14.621 19.8488 14.555 19.69 14.5547 19.5244V16.3044C14.5547 15.2422 15.4211 14.3761 16.4831 14.3761Z" fill="white"/>
</svg>
