<svg width="36" height="36" viewBox="0 0 36 36" fill="none" xmlns="http://www.w3.org/2000/svg">
<rect width="36" height="36" rx="8" fill="#FEEDCD"/>
<path d="M28.1603 26.3921L25.0187 20.9928C25.5624 20.827 26.1415 20.6805 26.3821 20.265C26.7831 19.5727 26.0693 18.4371 26.2568 17.695C26.4498 16.9313 27.5896 16.2705 27.5896 15.4942C27.5896 14.7379 26.4112 13.8544 26.218 13.0951C26.0293 12.3532 26.741 11.2163 26.3387 10.5249C25.9364 9.83336 24.5963 9.89017 24.0447 9.35938C23.4771 8.81314 23.4789 7.47668 22.7943 7.11063C22.107 6.74321 20.9898 7.48576 20.2267 7.30987C19.4722 7.13599 18.7981 6 18.01 6C17.2103 6 15.9382 7.2886 15.7387 7.33497C14.9759 7.51229 13.8574 6.77155 13.1707 7.14053C12.4868 7.50782 12.491 8.84441 11.9245 9.39155C11.3738 9.92332 10.0337 9.86897 9.63258 10.5613C9.23157 11.2534 9.94539 12.3888 9.75802 13.1313C9.57012 13.8756 8.39062 14.6297 8.39062 15.4905C8.39062 16.2669 9.53329 16.9256 9.72753 17.6889C9.91634 18.4309 9.20465 19.5676 9.60696 20.2593C9.82599 20.6358 10.3229 20.7904 10.8192 20.939C10.8771 20.9563 10.9867 21.0211 10.9125 21.1292L7.84017 26.4317C7.62277 26.8068 7.79931 27.1284 8.23237 27.1466L10.3521 27.235C10.7852 27.2532 11.3284 27.5679 11.5596 27.9345L12.6907 29.7294C12.9218 30.0961 13.2886 30.0892 13.506 29.7141C13.506 29.7141 16.6708 24.2501 16.6721 24.2485C16.7356 24.1743 16.7994 24.1896 16.83 24.2155C17.1763 24.5104 17.659 24.8045 18.0619 24.8045C18.457 24.8045 18.8229 24.5276 19.1848 24.2188C19.2142 24.1937 19.2859 24.1423 19.3383 24.2491C19.3391 24.2507 22.5005 29.6849 22.5005 29.6849C22.7184 30.0595 23.0853 30.0658 23.3157 29.6987L24.4437 27.9017C24.6742 27.5348 25.2168 27.2189 25.6499 27.2L27.7694 27.1077C28.2023 27.0887 28.3783 26.7666 28.1603 26.3921ZM21.5132 21.4771C19.1695 22.8406 16.3563 22.6945 14.2075 21.3391C11.059 19.3224 10.023 15.1505 11.9158 11.8836C13.8301 8.57914 18.0383 7.41312 21.3726 9.22908C21.3901 9.23861 21.4074 9.24847 21.4248 9.2582C21.4495 9.27188 21.4741 9.28576 21.4987 9.29977C22.5274 9.89283 23.4194 10.7536 24.0581 11.8514C26.0102 15.2069 24.8686 19.525 21.5132 21.4771Z" fill="#D5AB23"/>
<path d="M20.9768 10.2873C20.9671 10.2816 20.9572 10.2764 20.9475 10.2708C19.1664 9.23994 16.8962 9.16458 14.9936 10.2715C12.1702 11.9141 11.2095 15.5474 12.8521 18.3707C13.3533 19.2323 14.0402 19.92 14.8326 20.4136C14.9002 20.4566 14.9686 20.4983 15.0378 20.5386C17.8642 22.176 21.4956 21.2087 23.133 18.3824C24.7703 15.556 23.8033 11.9247 20.9768 10.2873ZM21.6839 14.9078L20.6942 15.8724C20.3877 16.1712 20.1961 16.7609 20.2686 17.1828L20.5022 18.5448C20.5746 18.9667 20.3238 19.1489 19.9449 18.9497L18.7217 18.3066C18.3428 18.1074 17.7228 18.1074 17.3439 18.3066L16.1207 18.9497C15.7418 19.1489 15.491 18.9667 15.5633 18.5448L15.797 17.1828C15.8693 16.7609 15.6777 16.1712 15.3712 15.8724L14.3816 14.9078C14.075 14.6091 14.1709 14.3142 14.5945 14.2526L15.9621 14.0539C16.3857 13.9923 16.8873 13.6279 17.0767 13.2441L17.6883 12.0048C17.8778 11.621 18.1878 11.621 18.3772 12.0048L18.9889 13.2441C19.1783 13.6279 19.6799 13.9923 20.1035 14.0539L21.4711 14.2526C21.8946 14.3142 21.9904 14.6091 21.6839 14.9078Z" fill="#D5AB23"/>
</svg>
