<svg width="24" height="24" viewBox="0 0 24 24" fill="none" xmlns="http://www.w3.org/2000/svg">
<path d="M16.5725 10.8458V12.1645C16.5725 12.4956 16.4858 12.8167 16.3275 13.0719L15.1564 14.9638V23.0416C15.1564 23.1719 15.1174 23.2969 15.0481 23.389C14.9788 23.4811 14.8847 23.5329 14.7867 23.5329H9.21258C9.11452 23.5329 9.02048 23.4811 8.95114 23.389C8.8818 23.2969 8.84284 23.1719 8.84284 23.0416V14.9638L7.67175 13.0719C7.51334 12.8164 7.42673 12.4956 7.42676 12.1645V8.45973L12.8236 8.37695C12.6989 8.3768 12.5754 8.40938 12.4602 8.47282C12.345 8.53626 12.2404 8.62931 12.1524 8.74663C12.0642 8.86369 11.9942 9.00272 11.9466 9.15576C11.8989 9.30879 11.8744 9.47282 11.8746 9.63844C11.8746 10.3348 12.2994 10.8999 12.8236 10.8999L16.5725 10.8458Z" fill="#FFE5C2"/>
<path d="M3.06948 14.7193H0.983391C0.634452 14.7193 0.351562 14.3435 0.351562 13.8799V4.336C0.351562 3.87241 0.634452 3.49658 0.983391 3.49658H3.06948V14.7193ZM20.9311 14.7193H23.0172C23.3662 14.7193 23.649 14.3435 23.649 13.8799V4.336C23.649 3.87241 23.3662 3.49658 23.0172 3.49658H20.9311V14.7193Z" fill="#B5ADB6"/>
<path d="M3.34082 10.8458V7.37012H20.7523V10.9L3.34082 10.8458Z" fill="#CBC4CC"/>
<path d="M11.9403 5.39339V7.26727C11.9403 8.00785 11.4883 8.60841 10.9304 8.60841C10.3729 8.60841 9.9209 8.00785 9.9209 7.26727V5.39339C9.9209 4.65281 10.3729 4.05225 10.9304 4.05225C11.2096 4.05225 11.4616 4.20223 11.6447 4.44494C11.8274 4.68766 11.9403 5.0231 11.9403 5.39339Z" fill="#FED2A4"/>
<path d="M14.0004 4.95929V7.14564C14.0004 8.0097 13.5303 8.71039 12.9502 8.71039C12.3705 8.71039 11.9004 8.0097 11.9004 7.14564V4.95929C11.9004 4.09523 12.3705 3.39453 12.9502 3.39453C13.2405 3.39453 13.5025 3.56953 13.693 3.8527C13.883 4.13587 14.0004 4.52726 14.0004 4.95929Z" fill="#FED2A4"/>
<path d="M15.9788 5.58138V7.45525C15.9788 8.19584 15.5267 8.7964 14.9688 8.7964C14.4114 8.7964 13.9593 8.19584 13.9593 7.45525V5.58138C13.9593 4.84079 14.4114 4.24023 14.9688 4.24023C15.248 4.24023 15.5 4.39022 15.6832 4.63293C15.8659 4.87565 15.9788 5.21109 15.9788 5.58138ZM9.92131 5.76933V7.26731C9.92131 8.00789 9.46973 8.60845 8.91183 8.60845C8.35439 8.60845 7.90234 8.00789 7.90234 7.26731V5.76933C7.90234 5.02874 8.35439 4.42818 8.91183 4.42818C9.19101 4.42818 9.44303 4.57817 9.62572 4.82088C9.80842 5.06359 9.92131 5.39904 9.92131 5.76933Z" fill="#FED2A4"/>
<path d="M10.7415 7.26724V5.39337C10.7415 4.84683 10.989 4.3769 11.3421 4.16798C11.2126 4.09149 11.0725 4.05205 10.9308 4.05222C10.3733 4.05222 9.92131 4.65278 9.92131 5.39337V7.26724C9.92131 8.00783 10.3733 8.60839 10.9308 8.60839C11.077 8.60839 11.2174 8.56626 11.3429 8.49207C10.9899 8.28315 10.7415 7.81378 10.7415 7.26724ZM12.7202 7.14557V4.95929C12.7202 4.31199 12.984 3.75642 13.3601 3.51838C13.232 3.43687 13.0917 3.39455 12.9497 3.39453C12.37 3.39453 11.8999 4.09523 11.8999 4.95935V7.1457C11.8999 8.00976 12.37 8.71045 12.9497 8.71045C13.0953 8.71045 13.234 8.66627 13.36 8.58654C12.984 8.34837 12.7202 7.79281 12.7202 7.14557ZM14.7795 7.45519V5.58132C14.7795 5.03478 15.0275 4.56516 15.3805 4.35617C15.2509 4.27959 15.1106 4.24005 14.9688 4.24011C14.4113 4.24011 13.9593 4.84067 13.9593 5.58125V7.45513C13.9593 8.19571 14.4113 8.79627 14.9688 8.79627C15.115 8.79627 15.2536 8.75414 15.379 8.67996C15.026 8.4711 14.7795 8.00173 14.7795 7.45519ZM8.72258 7.26724V5.76926C8.72258 5.22279 8.97015 4.75292 9.32316 4.54393C9.19369 4.4674 9.05354 4.42791 8.91183 4.42805C8.35439 4.42805 7.90234 5.02862 7.90234 5.7692V7.26718C7.90234 8.00777 8.35439 8.60833 8.91183 8.60833C9.05807 8.60833 9.19813 8.56638 9.32354 8.49214C8.97057 8.28328 8.72258 7.81372 8.72258 7.26724Z" fill="#FFBD86"/>
<path d="M16.573 9.34407V10.8869L12.8241 10.8999C12.2999 10.8999 11.875 10.3348 11.875 9.63844C11.875 9.28993 11.9813 8.97502 12.1528 8.74663C12.2408 8.62931 12.3455 8.53626 12.4607 8.47282C12.5759 8.40938 12.6994 8.3768 12.8241 8.37695H15.845C16.2469 8.37695 16.573 8.8101 16.573 9.34407Z" fill="#FFE5C2"/>
<path d="M4.52666 17.7492H3.4537C2.90488 17.7492 2.45996 17.1581 2.45996 16.4289V1.78703C2.45996 1.0579 2.90488 0.466797 3.4537 0.466797H4.52666C5.07548 0.466797 5.5204 1.0579 5.5204 1.78703V16.429C5.52035 17.1581 5.07548 17.7492 4.52666 17.7492ZM19.4729 17.7492H20.5459C21.0947 17.7492 21.5396 17.1581 21.5396 16.4289V1.78703C21.5396 1.0579 21.0947 0.466797 20.5459 0.466797H19.4729C18.9241 0.466797 18.4792 1.0579 18.4792 1.78703V16.429C18.4792 17.1581 18.9241 17.7492 19.4729 17.7492Z" fill="#A79BA7"/>
<path d="M23.017 3.02987H21.8912V1.78699C21.8912 0.801639 21.2878 0 20.5462 0H19.4732C18.7315 0 18.1282 0.801639 18.1282 1.78699V6.90339H16.3302V5.52976C16.3302 4.53283 15.7197 3.72185 14.9694 3.72185C14.6856 3.72154 14.409 3.83986 14.1787 4.06003C13.9594 3.45138 13.4913 3.02987 12.9504 3.02987C12.4391 3.02987 11.9928 3.40651 11.7603 3.96195C11.5306 3.72665 11.2433 3.58593 10.9314 3.58593C10.4581 3.58593 10.0409 3.90899 9.79703 4.39753C9.55893 4.12619 9.24995 3.96177 8.91244 3.96177C8.16205 3.96177 7.55163 4.77274 7.55163 5.76967V6.90352H5.87209V5.58589C5.87209 5.32806 5.71479 5.11914 5.52077 5.11914C5.32674 5.11914 5.16944 5.32806 5.16944 5.58589V16.4291C5.16944 16.8997 4.88126 17.2825 4.52707 17.2825H3.45397C3.09974 17.2825 2.81161 16.8997 2.81161 16.4291V1.78699C2.81161 1.31638 3.09979 0.933513 3.45397 0.933513H4.52693C4.88116 0.933513 5.1693 1.31638 5.1693 1.78699V3.59664C5.1693 3.85448 5.3266 4.0634 5.52063 4.0634C5.71465 4.0634 5.87195 3.85448 5.87195 3.59664V1.78699C5.87195 0.801639 5.26856 0 4.52693 0H3.45397C2.7123 0 2.10895 0.801639 2.10895 1.78699V3.02987H0.983156C0.441034 3.02987 0 3.61581 0 4.33598V13.88C0 14.6002 0.441034 15.1861 0.983156 15.1861H2.10895V16.429C2.10895 17.4143 2.71234 18.216 3.45397 18.216H4.52693C5.26861 18.216 5.87195 17.4143 5.87195 16.429V11.3126H7.07593V12.1649C7.07622 12.604 7.191 13.0295 7.40074 13.3688L8.49183 15.1312V23.5332C8.49183 23.7911 8.64913 24 8.84316 24C9.03718 24 9.19448 23.7911 9.19448 23.5332V14.9639C9.19447 14.8557 9.16619 14.7509 9.11448 14.6674L7.94338 12.7757C7.83694 12.6036 7.77869 12.3877 7.77854 12.1649V11.3126L14.4228 11.3666C14.6168 11.3666 14.7741 11.1577 14.7741 10.8998C14.7741 10.642 14.6168 10.4331 14.4228 10.4331H12.8242C12.4944 10.4331 12.2261 10.0766 12.2261 9.63852C12.2261 9.20039 12.4944 8.84392 12.8242 8.84392H15.845C16.0526 8.84392 16.2215 9.06821 16.2215 9.34397V12.1649C16.2215 12.3871 16.1629 12.6041 16.0566 12.7757L14.8855 14.6673C14.8338 14.7508 14.8055 14.8557 14.8055 14.9638V16.1949C14.8055 16.4527 14.9628 16.6617 15.1568 16.6617C15.3509 16.6617 15.5082 16.4527 15.5082 16.1949V15.1311L16.5993 13.3688C16.809 13.0294 16.9238 12.604 16.9241 12.1649V11.3126H18.128V16.429C18.128 17.4143 18.7314 18.2159 19.4731 18.2159H20.546C21.2877 18.2159 21.8911 17.4143 21.8911 16.429V15.1861H23.0168C23.559 15.1861 24 14.6001 24 13.8799V4.33598C24.0001 3.61581 23.5591 3.02987 23.017 3.02987ZM0.983156 14.2526C0.908789 14.2525 0.837493 14.2132 0.784908 14.1434C0.732323 14.0735 0.702742 13.9788 0.702656 13.88V4.33598C0.702742 4.23719 0.732324 4.14247 0.784911 4.07262C0.837497 4.00277 0.908794 3.96348 0.983156 3.96339H2.10895V14.2526H0.983156ZM14.9693 4.65537C15.3323 4.65537 15.6275 5.04763 15.6275 5.52976V7.26752C15.6275 7.51397 15.5488 7.74586 15.4141 7.91047H14.5245C14.4574 7.82877 14.4037 7.72943 14.367 7.61876C14.3303 7.50808 14.3112 7.38848 14.3111 7.26752V5.52976C14.3111 5.04763 14.6064 4.65537 14.9693 4.65537ZM12.2922 4.83778C12.2922 4.35565 12.5874 3.96339 12.9503 3.96339C13.3132 3.96339 13.6085 4.35565 13.6085 4.83778V7.26752C13.6085 7.51397 13.5298 7.74586 13.3951 7.91047H12.8243C12.7273 7.91047 12.6329 7.92509 12.5419 7.95197C12.4639 7.87048 12.401 7.76652 12.3577 7.64795C12.3144 7.52938 12.292 7.3993 12.2921 7.26752L12.2922 4.83778ZM10.2732 5.39378C10.2732 4.91165 10.5684 4.51938 10.9313 4.51938C11.2942 4.51938 11.5895 4.91165 11.5895 5.39378V7.26746C11.5895 7.74965 11.2943 8.14191 10.9313 8.14191C10.5684 8.14191 10.2732 7.74965 10.2732 7.26746V5.39378ZM8.25414 5.76961C8.25414 5.28748 8.5494 4.89522 8.9123 4.89522C9.2752 4.89522 9.57045 5.28748 9.57045 5.76961V7.26752C9.57045 7.74971 9.2752 8.14198 8.9123 8.14198C8.5494 8.14198 8.25414 7.74971 8.25414 7.26752V5.76961ZM5.872 7.8369H7.62105C7.80107 8.55558 8.31171 9.07543 8.91234 9.07543C9.31248 9.07543 9.6728 8.84466 9.92201 8.47823C10.1712 8.8446 10.5313 9.07543 10.9314 9.07543C11.2212 9.07543 11.4895 8.95326 11.7104 8.74727C11.5879 9.01607 11.5233 9.32433 11.5236 9.63852C11.5236 9.90339 11.5688 10.1545 11.6493 10.379H5.872V7.8369ZM16.9242 10.3791V9.34403C16.9242 8.72567 16.628 8.19755 16.2142 7.99685C16.2315 7.94463 16.2469 7.89123 16.2605 7.8369H18.1282V10.3791H16.9242ZM23.2975 13.88C23.2974 13.9788 23.2678 14.0735 23.2152 14.1434C23.1626 14.2132 23.0914 14.2525 23.017 14.2526H21.8912V12.9038C21.8912 12.6459 21.7339 12.437 21.5399 12.437C21.3458 12.437 21.1885 12.6459 21.1885 12.9038V16.429C21.1885 16.8996 20.9004 17.2824 20.5462 17.2824H19.4732C19.119 17.2824 18.8308 16.8996 18.8308 16.429V1.78699C18.8308 1.31638 19.119 0.933513 19.4732 0.933513H20.5462C20.9004 0.933513 21.1885 1.31638 21.1885 1.78699V10.9146C21.1885 11.1724 21.3458 11.3813 21.5399 11.3813C21.7339 11.3813 21.8912 11.1724 21.8912 10.9146V3.96339H23.017C23.0913 3.96348 23.1626 4.00277 23.2152 4.07262C23.2678 4.14247 23.2974 4.23719 23.2975 4.33598V13.88Z" fill="black"/>
<path d="M15.157 17.7173C15.0638 17.7173 14.9745 17.7665 14.9086 17.854C14.8427 17.9415 14.8057 18.0603 14.8057 18.184V23.5331C14.8057 23.791 14.963 23.9999 15.157 23.9999C15.351 23.9999 15.5083 23.791 15.5083 23.5331V18.184C15.5083 17.9262 15.3511 17.7173 15.157 17.7173Z" fill="black"/>
</svg>
