<svg width="20" height="21" viewBox="0 0 20 21" fill="none" xmlns="http://www.w3.org/2000/svg">
<path d="M5.2 2.5C4.35131 2.5 3.53737 2.83714 2.93726 3.43726C2.33714 4.03737 2 4.85131 2 5.7V9.7H10.4688L8.6344 7.8656C8.48867 7.71472 8.40804 7.51264 8.40986 7.30288C8.41168 7.09312 8.49582 6.89247 8.64415 6.74414C8.79247 6.59582 8.99312 6.51168 9.20288 6.50986C9.41264 6.50804 9.61472 6.58867 9.7656 6.7344L12.9656 9.9344L12.9712 9.94C13.1175 10.0887 13.1997 10.2889 13.2 10.4976V10.5024C13.2 10.72 13.112 10.9168 12.9712 11.0608L12.9648 11.0664L9.7656 14.2664C9.61549 14.4164 9.41193 14.5006 9.19972 14.5006C8.9875 14.5005 8.78401 14.4161 8.634 14.266C8.48399 14.1159 8.39976 13.9123 8.39984 13.7001C8.39991 13.4879 8.48429 13.2844 8.6344 13.1344L10.4688 11.3H2V15.3C2 16.1487 2.33714 16.9626 2.93726 17.5627C3.53737 18.1629 4.35131 18.5 5.2 18.5H14.8C15.6487 18.5 16.4626 18.1629 17.0627 17.5627C17.6629 16.9626 18 16.1487 18 15.3V5.7C18 4.85131 17.6629 4.03737 17.0627 3.43726C16.4626 2.83714 15.6487 2.5 14.8 2.5H5.2Z" fill="#FF1177"/>
</svg>
