<svg width="287" height="197" viewBox="0 0 287 197" fill="none" xmlns="http://www.w3.org/2000/svg">
<path d="M60.6658 149.7L47.4297 127.639H106.992L99.2711 149.7H60.6658Z" fill="#FBEFE3"/>
<path d="M184.754 148.597L177.585 127.639H238.25L223.359 149.7L184.754 148.597Z" fill="#FBEFE3"/>
<path d="M90.9985 153.009H79.9684L142.84 189.959L205.711 153.56L194.681 153.009L141.737 183.341L90.9985 153.009Z" fill="#FBEFE3"/>
<path d="M76.1079 152.457L72.2474 153.009L142.84 196.026L213.432 153.009H210.675L142.84 192.717L76.1079 152.457Z" fill="#FBEFE3"/>
<path d="M13.7876 97.3075L0 75.7988H75.556L103.131 97.3075H13.7876Z" fill="#030406"/>
<path d="M59.0045 71.9116V43.8066C98.9803 39.7363 126.787 30.6735 143.87 11.3858C174.97 35.3148 193.176 40.8699 227.083 43.8066V71.9116M52.3916 71.9116V37.1937C93.571 33.2796 113.699 25.9632 143.87 3.02686C175.896 26.3193 195.72 34.3887 234.798 38.2958M233.121 38.7789V71.9116" stroke="black" stroke-width="3.35426"/>
<path d="M129.053 75.7988L143.392 32.23L157.732 75.7988L205.712 76.9018L167.659 105.028L182.549 150.803L143.944 123.228L105.339 149.7L119.126 105.028L81.624 76.9018L129.053 75.7988Z" fill="#030406" stroke="black" stroke-width="2.20602"/>
<path d="M136.772 87.9313H115.814L131.808 100.616L125.742 120.47L143.941 108.888L160.486 120.47L154.42 100.616L170.965 87.3798H149.456L143.39 67.5256L136.772 87.9313Z" fill="#FBEFE3" stroke="black" stroke-width="2.20602"/>
<path d="M67.2852 71.3861V50.9805C100.861 46.9385 118.156 39.0304 144.233 19.7712M143.115 19.7712C171.635 37.8993 188.459 47.456 220.052 50.9805V71.3861" stroke="black" stroke-width="2.20602"/>
<path d="M212.329 76.9014L183.1 98.41H271.892L286.231 76.9014H212.329Z" fill="#030406"/>
<path d="M36.9497 123.78L23.1621 102.823L110.3 101.168L114.16 105.029L108.645 123.78H36.9497Z" fill="#FBEFE3"/>
<path d="M175.929 102.271L171.517 105.029L177.032 122.677L248.176 123.78L262.515 102.271H175.929Z" fill="#FBEFE3"/>
<path d="M141.438 180.776L93.3604 152.824L97.2737 151.706L141.997 177.981L185.603 154.501L187.839 155.619L141.438 180.776Z" fill="#FBEFE3"/>
</svg>
