<svg width="36" height="36" viewBox="0 0 36 36" fill="none" xmlns="http://www.w3.org/2000/svg">
<rect width="36" height="36" rx="8" fill="#2C78DC" fill-opacity="0.08"/>
<path d="M9.66676 21.4675C9.65664 21.4112 9.65146 21.3543 9.65129 21.2972V14.7358L8.12801 14.6687C7.99644 14.6632 7.86727 14.6317 7.74797 14.576C7.62867 14.5203 7.52161 14.4414 7.43298 14.344C7.34376 14.2472 7.27465 14.1336 7.22965 14.0098C7.18465 13.886 7.16465 13.7546 7.17081 13.623C7.17883 13.4387 7.23782 13.2601 7.34121 13.1073C7.24526 13.009 7.16643 12.8755 7.10999 12.7166C6.92012 12.5681 6.76821 12.497 6.76821 12.497L6.71596 12.3242L6.77707 12.3057L6.65046 11.8865L6.03329 12.073L6.15989 12.4922L6.22101 12.4737L6.27327 12.6466C6.27327 12.6466 5.83068 13.372 6.07202 14.1707L6.46741 15.4792L6.09771 16.8018L7.11787 17.4859C7.17431 17.5539 7.24574 17.6027 7.3235 17.6237L7.7258 17.8935C8.09385 20.3209 8.96171 22.1605 10.1912 22.5226L9.91375 22.1259C9.77751 21.9313 9.69226 21.7038 9.66676 21.4675ZM8.40818 12.6743L11.0153 12.7892V12.7207C10.6181 12.3059 10.3811 11.7636 10.3462 11.1904H8.20878C8.38171 11.401 8.48983 11.7335 8.48983 12.1226C8.48983 12.3248 8.46034 12.5116 8.40808 12.6744L8.40818 12.6743Z" fill="#1893F8"/>
<path d="M8.1729 12.6651C8.23129 12.5113 8.26574 12.3245 8.26574 12.1226C8.26574 11.5991 8.03549 11.1745 7.75152 11.1745C7.46755 11.1745 7.2373 11.5991 7.2373 12.1226C7.2373 12.4681 7.33773 12.7693 7.48741 12.9351C7.67323 12.7612 7.91837 12.6646 8.1729 12.6651ZM7.70714 11.6165C7.84475 11.6165 7.95627 11.8431 7.95627 12.1226C7.95627 12.4022 7.84475 12.6289 7.70714 12.6289C7.56964 12.6289 7.45802 12.4022 7.45802 12.1226C7.45802 11.8431 7.56964 11.6165 7.70714 11.6165ZM10.3685 15.8603C10.5904 15.6366 10.7773 15.1734 10.8089 14.787L9.87485 14.7458V16.1149C10.0507 16.0984 10.2167 16.0134 10.3685 15.8603ZM13.3454 8.94111C12.181 8.6149 10.9727 9.29436 10.6463 10.4589C10.451 11.1563 10.6166 11.8692 11.0307 12.3992H11.5065V12.1523H14.1944V12.3992H14.4792C14.6557 12.1739 14.7862 11.916 14.8632 11.6403C14.8793 11.5827 14.8923 11.525 14.9035 11.4674C14.7776 11.4447 14.6524 11.4181 14.5281 11.3876C13.4266 11.1168 12.6039 10.6042 12.661 10.2316C12.7797 10.5798 13.6217 10.913 14.6691 11.0042C15.4596 11.0731 16.16 10.9863 16.5322 10.8009C16.702 10.7163 16.8035 10.6113 16.814 10.4911C16.8475 10.1073 15.9413 9.71486 14.7902 9.61463C14.7557 9.61161 14.722 9.60976 14.688 9.60743C14.5884 9.60015 14.4887 9.59528 14.3889 9.59283C14.1109 9.27984 13.7487 9.05358 13.3454 8.94111ZM18.8502 13.6538L17.1873 15.0623L15.9923 14.5377C15.8966 14.6797 15.766 14.7946 15.6131 14.8715C15.4602 14.9485 15.29 14.9848 15.119 14.977L14.7406 14.9603C14.7815 15.2943 14.9389 15.6413 15.1562 15.8603C15.1634 15.8675 15.1707 15.8737 15.1779 15.8807L15.3627 15.9618L16.9958 16.6787L17.0005 16.6808L17.0066 16.6834C17.015 16.6871 17.0237 16.6897 17.0321 16.6931C17.048 16.6994 17.0639 16.706 17.0801 16.7112C17.0969 16.7167 17.1139 16.7207 17.1308 16.725C17.1398 16.7271 17.1485 16.7301 17.1575 16.732C17.2113 16.7435 17.2655 16.7493 17.3192 16.7493C17.321 16.7493 17.3227 16.7489 17.3246 16.7489C17.356 16.7487 17.3875 16.746 17.4189 16.7421C17.4253 16.7413 17.4316 16.7406 17.438 16.7396C17.4701 16.7347 17.5022 16.7277 17.5337 16.7187C17.5382 16.7174 17.5425 16.7159 17.5468 16.7146C17.6183 16.6928 17.6861 16.6608 17.7484 16.6196C17.7739 16.6028 17.799 16.5849 17.8227 16.5646L17.8279 16.5602L17.8304 16.5582L20.5801 14.229C20.6765 14.1474 20.7517 14.0434 20.7989 13.9262C20.8461 13.8089 20.8641 13.6819 20.8512 13.5562H19.1687L18.8502 13.6538Z" fill="#1893F8"/>
<path d="M11.3927 14.8127C11.3543 15.34 11.1033 15.9489 10.7832 16.2716C10.5171 16.5398 10.2115 16.684 9.87492 16.7008V21.2974C9.87492 21.3447 9.87988 21.3911 9.88825 21.436C9.9081 21.6316 9.97612 21.8252 10.0969 21.9978L11.9886 24.7024H8.0847C7.42626 24.7024 6.89258 25.2362 6.89258 25.8945C6.89258 26.5529 7.42626 27.0867 8.0847 27.0867H14.2772C14.4952 27.0866 14.709 27.0268 14.8954 26.9138C15.0818 26.8007 15.2336 26.6386 15.3344 26.4453C15.4351 26.2519 15.4808 26.0347 15.4667 25.8171C15.4525 25.5996 15.379 25.3901 15.254 25.2114L13.6701 22.9469C13.8337 23.0189 14.0115 23.0531 14.1901 23.0469C14.3688 23.0408 14.5438 22.9945 14.7021 22.9114L17.5009 21.4447L19.285 26.3552C19.4609 26.8397 19.9182 27.1406 20.4054 27.1406C20.5406 27.1406 20.678 27.1174 20.8125 27.0686C21.4313 26.8438 21.7506 26.1598 21.5258 25.541L19.2759 19.3486C19.2179 19.1888 19.1263 19.0432 19.0074 18.9217C18.8884 18.8002 18.7449 18.7056 18.5863 18.6441C18.4278 18.5827 18.2579 18.5558 18.0882 18.5654C17.9184 18.575 17.7527 18.6209 17.6021 18.6998L15.139 19.9907V16.5642C14.9986 16.4934 14.8658 16.3964 14.7417 16.2715C14.4074 15.9345 14.1893 15.4313 14.1534 14.9344L11.3927 14.8127ZM18.7806 11.958H18.8117L19.5546 12.1003V12.1011H20.5503V11.3544H19.5547V11.3551L18.8117 11.4975V11.498H18.3014V11.1919H17.8036V11.498H15.439V11.958H17.0632V12.3762H16.2108V12.3779L16.1672 12.3762V12.623H13.9705V12.3762H11.7304V12.623H11.2389V12.7994L15.2067 12.9742C15.7221 12.997 16.1303 13.4073 16.1626 13.9111H16.9324L17.1192 13.6871H17.9779L19.1353 13.3325H22.626V12.7205H29.9998V12.3762H18.7806V11.958ZM18.5379 12.3762H17.3058V11.958H18.5379V12.3762Z" fill="#1893F8"/>
<path d="M15.9404 14.0097C15.9449 13.9075 15.9292 13.8055 15.8943 13.7094C15.8594 13.6133 15.8059 13.525 15.7368 13.4496C15.6678 13.3742 15.5846 13.3131 15.4919 13.2699C15.3993 13.2266 15.299 13.2021 15.1969 13.1976L8.20641 12.8894C7.77793 12.8714 7.41329 13.2033 7.39431 13.6329C7.3898 13.735 7.40546 13.837 7.44038 13.9331C7.47531 14.0292 7.52882 14.1175 7.59786 14.1929C7.6669 14.2683 7.75012 14.3294 7.84276 14.3726C7.93541 14.4159 8.03566 14.4405 8.1378 14.445L15.1283 14.7532C15.2304 14.7577 15.3325 14.742 15.4285 14.7071C15.5246 14.6722 15.6129 14.6187 15.6883 14.5496C15.7637 14.4806 15.8248 14.3974 15.8681 14.3047C15.9113 14.2121 15.9359 14.1118 15.9404 14.0097Z" fill="#1893F8"/>
</svg>
