<svg width="24" height="24" viewBox="0 0 24 24" fill="none" xmlns="http://www.w3.org/2000/svg">
<path d="M6.75 4.6875H3.75C3.70027 4.6875 3.65258 4.70725 3.61742 4.74242C3.58225 4.77758 3.5625 4.82527 3.5625 4.875V5.625C3.5625 5.67473 3.58225 5.72242 3.61742 5.75758C3.65258 5.79275 3.70027 5.8125 3.75 5.8125H6.75C6.79973 5.8125 6.84742 5.79275 6.88258 5.75758C6.91775 5.72242 6.9375 5.67473 6.9375 5.625V4.875C6.9375 4.82527 6.91775 4.77758 6.88258 4.74242C6.84742 4.70725 6.79973 4.6875 6.75 4.6875ZM20.25 4.6875H17.25C17.2003 4.6875 17.1526 4.70725 17.1174 4.74242C17.0823 4.77758 17.0625 4.82527 17.0625 4.875V5.625C17.0625 5.67473 17.0823 5.72242 17.1174 5.75758C17.1526 5.79275 17.2003 5.8125 17.25 5.8125H20.25C20.2997 5.8125 20.3474 5.79275 20.3826 5.75758C20.4177 5.72242 20.4375 5.67473 20.4375 5.625V4.875C20.4375 4.82527 20.4177 4.77758 20.3826 4.74242C20.3474 4.70725 20.2997 4.6875 20.25 4.6875ZM14.25 1.6875H9.75C8.81962 1.6875 8.0625 2.44463 8.0625 3.375V5.625C8.0625 5.67473 8.08225 5.72242 8.11742 5.75758C8.15258 5.79275 8.20027 5.8125 8.25 5.8125H9.375C9.42473 5.8125 9.47242 5.79275 9.50758 5.75758C9.54275 5.72242 9.5625 5.67473 9.5625 5.625V3.375C9.5625 3.27506 9.65006 3.1875 9.75 3.1875H14.25C14.3499 3.1875 14.4375 3.27506 14.4375 3.375V5.625C14.4375 5.67473 14.4573 5.72242 14.4924 5.75758C14.5276 5.79275 14.5753 5.8125 14.625 5.8125H15.75C15.7997 5.8125 15.8474 5.79275 15.8826 5.75758C15.9177 5.72242 15.9375 5.67473 15.9375 5.625V3.375C15.9375 2.44463 15.1804 1.6875 14.25 1.6875Z" fill="#607D8B"/>
<path d="M21 5.4375H3C1.656 5.4375 0.5625 6.531 0.5625 7.875V19.875C0.5625 21.219 1.656 22.3125 3 22.3125H21C22.344 22.3125 23.4375 21.219 23.4375 19.875V7.875C23.4375 6.531 22.344 5.4375 21 5.4375Z" fill="#4279F5"/>
<path d="M12 7.6875C8.58825 7.6875 5.8125 10.4633 5.8125 13.875C5.8125 17.2867 8.58825 20.0625 12 20.0625C15.4117 20.0625 18.1875 17.2867 18.1875 13.875C18.1875 10.4633 15.4117 7.6875 12 7.6875Z" fill="white"/>
<path d="M15.75 12.5625H13.3125V10.125C13.3125 10.0753 13.2927 10.0276 13.2576 9.99242C13.2224 9.95725 13.1747 9.9375 13.125 9.9375H10.875C10.8253 9.9375 10.7776 9.95725 10.7424 9.99242C10.7073 10.0276 10.6875 10.0753 10.6875 10.125V12.5625H8.25C8.20027 12.5625 8.15258 12.5823 8.11742 12.6174C8.08225 12.6526 8.0625 12.7003 8.0625 12.75V15C8.0625 15.0497 8.08225 15.0974 8.11742 15.1326C8.15258 15.1677 8.20027 15.1875 8.25 15.1875H10.6875V17.625C10.6875 17.6747 10.7073 17.7224 10.7424 17.7576C10.7776 17.7927 10.8253 17.8125 10.875 17.8125H13.125C13.1747 17.8125 13.2224 17.7927 13.2576 17.7576C13.2927 17.7224 13.3125 17.6747 13.3125 17.625V15.1875H15.75C15.7997 15.1875 15.8474 15.1677 15.8826 15.1326C15.9177 15.0974 15.9375 15.0497 15.9375 15V12.75C15.9375 12.7003 15.9177 12.6526 15.8826 12.6174C15.8474 12.5823 15.7997 12.5625 15.75 12.5625Z" fill="#4279F5"/>
<path d="M1.5 10.6875C1.45027 10.6875 1.40258 10.6677 1.36742 10.6326C1.33225 10.5974 1.3125 10.5497 1.3125 10.5V7.875C1.3125 7.82527 1.33225 7.77758 1.36742 7.74242C1.40258 7.70725 1.45027 7.6875 1.5 7.6875C1.54973 7.6875 1.59742 7.70725 1.63258 7.74242C1.66775 7.77758 1.6875 7.82527 1.6875 7.875V10.5C1.6875 10.5497 1.66775 10.5974 1.63258 10.6326C1.59742 10.6677 1.54973 10.6875 1.5 10.6875ZM1.5 12.5625C1.45027 12.5625 1.40258 12.5427 1.36742 12.5076C1.33225 12.4724 1.3125 12.4247 1.3125 12.375V11.625C1.3125 11.5753 1.33225 11.5276 1.36742 11.4924C1.40258 11.4573 1.45027 11.4375 1.5 11.4375C1.54973 11.4375 1.59742 11.4573 1.63258 11.4924C1.66775 11.5276 1.6875 11.5753 1.6875 11.625V12.375C1.6875 12.4247 1.66775 12.4724 1.63258 12.5076C1.59742 12.5427 1.54973 12.5625 1.5 12.5625Z" fill="#C5D5F9"/>
</svg>
