<svg width="20" height="20" viewBox="0 0 20 20" fill="none" xmlns="http://www.w3.org/2000/svg">
<path d="M13.6123 1.66602C16.4353 1.66623 18.3329 3.64776 18.333 6.59668V13.4023C18.333 16.3514 16.4353 18.3329 13.6113 18.333H6.3877C3.56353 18.333 1.66602 16.3515 1.66602 13.4023V6.59668C1.66609 3.64761 3.56358 1.66602 6.3877 1.66602H13.6123ZM7.36719 7.83203C6.1723 7.83203 5.1994 8.80417 5.19922 9.99902C5.19922 11.1949 6.17219 12.168 7.36719 12.168C8.3437 12.1678 9.16167 11.5139 9.43164 10.624H11.1914V11.543C11.1916 11.8877 11.4717 12.1677 11.8164 12.168C12.1613 12.168 12.4413 11.8878 12.4414 11.543V10.624H13.5498V11.543C13.55 11.8877 13.8301 12.1678 14.1748 12.168C14.5197 12.168 14.7996 11.8878 14.7998 11.543V9.99902C14.7996 9.65417 14.5197 9.37402 14.1748 9.37402H9.43164C9.16156 8.48514 8.34357 7.83218 7.36719 7.83203ZM7.36719 9.08203C7.87287 9.08217 8.2851 9.49346 8.28516 10C8.28516 10.5057 7.8729 10.9178 7.36719 10.918C6.86135 10.918 6.44824 10.5058 6.44824 10C6.4483 9.49338 6.86139 9.08203 7.36719 9.08203Z" fill="#0501FF"/>
</svg>
