<svg width="20" height="21" viewBox="0 0 20 21" fill="none" xmlns="http://www.w3.org/2000/svg">
<g clip-path="url(#clip0_34649_14489)">
<path d="M11.875 0.5H2.29167C1.025 0.5 0 1.525 0 2.79167V15.7083C0 16.975 1.025 18 2.29167 18H9.08333C8.38333 16.8917 7.91667 15.5833 7.91667 14.0833V12.05C7.79167 12.125 7.65 12.1667 7.5 12.1667H3.33333C2.875 12.1667 2.5 11.7917 2.5 11.3333C2.5 10.875 2.875 10.5 3.33333 10.5H7.5C7.65833 10.5 7.8 10.5417 7.925 10.6167C7.95833 9.90833 8.29167 9.25833 8.81667 8.83333H3.33333C2.875 8.83333 2.5 8.45833 2.5 8C2.5 7.54167 2.875 7.16667 3.33333 7.16667H10.8333C11.1833 7.16667 11.4833 7.38333 11.6083 7.69167L13.9833 6.88333C14.0417 6.85833 14.1 6.84167 14.1667 6.83333V2.79167C14.1667 1.525 13.1417 0.5 11.875 0.5ZM6.66667 5.5H3.33333C2.875 5.5 2.5 5.125 2.5 4.66667C2.5 4.20833 2.875 3.83333 3.33333 3.83333H6.66667C7.125 3.83333 7.5 4.20833 7.5 4.66667C7.5 5.125 7.125 5.5 6.66667 5.5Z" fill="#0501FF"/>
<path d="M19.4345 9.94922L15.0595 8.46089C14.8853 8.40171 14.6963 8.40171 14.522 8.46089L10.147 9.94922C9.9823 10.0054 9.83926 10.1117 9.73794 10.2532C9.63663 10.3947 9.58211 10.5643 9.58203 10.7384V14.0867C9.58203 18.3092 14.2645 20.3492 14.4637 20.4342C14.5673 20.4776 14.6785 20.4998 14.7909 20.4997C14.9032 20.4995 15.0144 20.477 15.1179 20.4334C15.317 20.3484 19.9995 18.3092 19.9995 14.0867V10.7384C19.9997 10.5643 19.9453 10.3945 19.8439 10.253C19.7426 10.1114 19.5994 10.0052 19.4345 9.94922ZM17.7495 13.0834L15.2495 16.4167C15.1721 16.5204 15.0715 16.6046 14.9557 16.6624C14.84 16.7203 14.7123 16.7503 14.5829 16.7501C14.4734 16.7503 14.365 16.7288 14.2639 16.6869C14.1627 16.645 14.0709 16.5835 13.9937 16.5059L12.327 14.8392C12.2497 14.7619 12.1883 14.67 12.1464 14.5689C12.1045 14.4678 12.083 14.3595 12.083 14.2501C12.083 14.1406 12.1045 14.0323 12.1464 13.9312C12.1883 13.8301 12.2497 13.7383 12.327 13.6609C12.4044 13.5835 12.4963 13.5221 12.5973 13.4803C12.6984 13.4384 12.8068 13.4168 12.9162 13.4168C13.0256 13.4168 13.134 13.4384 13.2351 13.4803C13.3361 13.5221 13.428 13.5835 13.5054 13.6609L14.4929 14.6484L16.4162 12.0834C16.5488 11.9066 16.7462 11.7897 16.965 11.7584C17.0733 11.743 17.1837 11.749 17.2897 11.7761C17.3957 11.8033 17.4953 11.8511 17.5829 11.9167C17.6704 11.9824 17.7442 12.0646 17.7999 12.1588C17.8557 12.253 17.8923 12.3572 17.9078 12.4655C17.9233 12.5739 17.9173 12.6842 17.8901 12.7902C17.863 12.8962 17.8152 12.9958 17.7495 13.0834Z" fill="#0501FF"/>
</g>
<defs>
<clipPath id="clip0_34649_14489">
<rect width="20" height="20" fill="white" transform="translate(0 0.5)"/>
</clipPath>
</defs>
</svg>
