<svg width="65" height="64" viewBox="0 0 65 64" fill="none" xmlns="http://www.w3.org/2000/svg">
<g clip-path="url(#clip0_34649_15550)">
<path d="M32.5 64C50.1731 64 64.5 49.6731 64.5 32C64.5 14.3269 50.1731 0 32.5 0C14.8269 0 0.5 14.3269 0.5 32C0.5 49.6731 14.8269 64 32.5 64Z" fill="#FF3356"/>
<path fill-rule="evenodd" clip-rule="evenodd" d="M62.6883 42.6375C62.6076 42.8665 62.5243 43.0943 62.4383 43.3211L62.4372 43.3242C62.2997 43.6875 62.1558 44.0475 62.0056 44.4043L62.0005 44.4168C61.9255 44.5945 61.8491 44.7713 61.7713 44.9472L61.7707 44.9486C60.7018 47.3601 59.3388 49.6302 57.7127 51.7072L57.7135 51.708C57.517 51.959 57.3167 52.2068 57.1126 52.4515L57.0583 52.5161L57.0387 52.5396L57.0191 52.563L57.0172 52.5651C55.7777 54.0419 54.4078 55.4042 52.9242 56.6356L52.9235 56.6348L52.9055 56.6498L52.8977 56.6562L52.8811 56.6701L52.7955 56.7406L52.7533 56.7751L52.7106 56.81L52.6992 56.8192C51.8222 57.5341 50.9079 58.2022 49.9602 58.8205L49.9552 58.8238C49.8915 58.8661 49.8277 58.9082 49.7633 58.9488L49.7623 58.9478C49.3673 59.2014 48.9666 59.4465 48.56 59.683L48.5585 59.6816C48.0614 59.9706 47.5559 60.2464 47.042 60.5091L47.0445 60.5112C45.6267 61.2356 44.1565 61.8525 42.6463 62.3567L42.645 62.3555C41.3158 62.7996 39.9587 63.1553 38.5825 63.4201L22.1357 49.2806L22.3782 49.4713L22.6298 49.6506L22.8902 49.818L23.1587 49.9728L23.4352 50.115L23.7191 50.2438L24.0102 50.3591L24.3078 50.4603L24.6116 50.5471L24.9212 50.6191L25.2363 50.6757L25.5563 50.7167L25.8813 50.7417L26.21 50.7501H29.5396L24.4656 46.2567L24.3753 46.1705L24.2891 46.0801L24.2072 45.9857L24.13 45.8875L24.0573 45.7856L23.9896 45.6802L23.9271 45.5713L23.8696 45.4595L23.8173 45.3443L23.7706 45.2266L23.7297 45.106L23.6945 44.983L23.6653 44.858L23.6425 44.7305L23.6258 44.6L23.6158 44.4685L23.6125 44.3352V39.8145L23.61 39.7166L23.6027 39.6201L23.5902 39.5248L23.5732 39.4311L23.552 39.339L23.526 39.2486L23.496 39.1601L23.4617 39.0736L23.4232 38.9891L23.381 38.9068L23.335 38.827L23.285 38.7495L23.2317 38.6745L23.1748 38.6023L23.1147 38.533L23.0513 38.4667L22.9851 38.4033L36.4208 50.75H38.7921L38.9687 50.7455L28.132 40.6465L28.1937 40.6995L28.2575 40.7488L28.3231 40.7945L28.3906 40.8366L28.4597 40.8748L28.5302 40.9096L28.6021 40.9406L28.675 40.9681L28.7488 40.9917L28.8238 41.0118L28.8996 41.0283L28.9756 41.0408L29.0523 41.05L29.1291 41.0555L29.2062 41.0572L29.2832 41.0555L29.3602 41.05L29.4367 41.0408L29.513 41.0283L29.588 41.0118L29.663 40.9917L29.737 40.968L29.81 40.9406L29.8817 40.9096L29.9522 40.8748L30.0212 40.8365L30.0887 40.7945L30.1543 40.7487L30.2182 40.6995L30.2801 40.6465L30.3152 40.613L22.5586 33.3L22.6168 33.35L22.6775 33.3976L22.74 33.4425L22.805 33.4842L22.8722 33.523L22.9412 33.5585L23.0122 33.5907L23.085 33.6195L23.1593 33.6445L23.2353 33.6661L23.3127 33.6841L23.3915 33.6982L23.4715 33.7085L23.5525 33.7147L23.6347 33.7168H29.4097L20.3555 24.8918L20.4218 24.9551L20.4912 25.0151L20.5633 25.072L20.6383 25.1252L20.7158 25.1752L20.7957 25.2213L20.878 25.2637L20.9625 25.302L21.0488 25.3362L21.1375 25.3665L21.228 25.3922L21.3201 25.4136L21.4137 25.4305L21.509 25.443L21.6055 25.4503L21.7035 25.4528L21.8012 25.4503L21.8977 25.443L21.993 25.4305L22.0867 25.4136L22.1788 25.3922L22.2692 25.3665L22.3577 25.3362L22.4442 25.302L22.5287 25.2637L22.611 25.2213L22.6908 25.1753L22.7683 25.1253L22.8433 25.0721L22.9155 25.0152L22.9848 24.9552L23.0511 24.892L23.1145 24.8256L23.1746 24.7562L23.2312 24.6841L23.2847 24.6091L23.3347 24.5317L23.3807 24.4517L23.423 24.3696L23.4615 24.2851L23.4957 24.1985L23.5257 24.1098L23.5517 24.0196L23.573 23.9275L23.5898 23.8336L23.6023 23.7385L23.6096 23.6418L23.6121 23.5441V19.6645L23.6155 19.5313L23.6258 19.4L23.6426 19.2703L23.6655 19.1427L23.6946 19.0177L23.7298 18.8947L23.7707 18.7742L23.8175 18.6563L23.8697 18.5415L23.9272 18.429L23.9897 18.3201L24.0575 18.2146L24.1301 18.1127L24.2073 18.0145L24.2892 17.9201L24.3755 17.8298L24.4657 17.7437L24.5601 17.6618L24.6583 17.5845L24.7602 17.512L24.8657 17.4442L24.9745 17.3817L25.087 17.3242L25.202 17.272L25.3198 17.2253L25.4403 17.1843L25.5633 17.1492L25.6883 17.12L25.816 17.0971L25.9455 17.0805L26.0771 17.0703L26.2101 17.067H38.7921L38.9251 17.0703L39.0567 17.0805L39.1863 17.0971L39.314 17.12L39.439 17.1492L39.562 17.1843L39.6826 17.2253L39.8003 17.272L39.9153 17.3242L40.0278 17.3817L40.1366 17.4442L40.2421 17.512L40.344 17.5845L40.4422 17.6618L40.5366 17.7437L40.6268 17.8298L40.7131 17.9201L45.2066 22.975V19.665L45.1981 19.3361L45.1731 19.0111L45.1322 18.691L45.0755 18.376L45.0035 18.0662L44.9167 17.7623L44.8156 17.4648L44.7002 17.1738L44.5713 16.8898L44.4292 16.6135L44.2742 16.3448L44.107 16.0846L43.9277 15.8328L43.737 15.5903L63.7775 38.7861C63.4953 40.0911 63.131 41.3769 62.687 42.6361L62.6877 42.6371L62.6883 42.6375Z" fill="#DC143C"/>
<path fill-rule="evenodd" clip-rule="evenodd" d="M45.206 44.3356V19.6645C45.2011 17.9648 44.5237 16.3361 43.3218 15.1343C42.1199 13.9324 40.4912 13.255 38.7915 13.25H26.2094C24.5097 13.255 22.8811 13.9324 21.6792 15.1343C20.4773 16.3361 19.7999 17.9648 19.7949 19.6645V23.5443C19.7949 24.0504 19.996 24.5357 20.3538 24.8936C20.7117 25.2515 21.1971 25.4525 21.7032 25.4525C22.2093 25.4525 22.6946 25.2515 23.0525 24.8936C23.4104 24.5357 23.6114 24.0504 23.6114 23.5443V19.6645C23.6134 18.9761 23.8878 18.3164 24.3746 17.8297C24.8614 17.3429 25.521 17.0685 26.2094 17.0665H38.7915C39.48 17.0685 40.1396 17.3429 40.6264 17.8297C41.1132 18.3164 41.3875 18.9761 41.3895 19.6645V44.3356C41.3875 45.024 41.1131 45.6836 40.6263 46.1704C40.1396 46.6571 39.4799 46.9315 38.7915 46.9335H26.2094C25.521 46.9315 24.8614 46.6571 24.3746 46.1704C23.8878 45.6836 23.6135 45.024 23.6114 44.3356V39.8145C23.6114 39.3084 23.4104 38.823 23.0525 38.4652C22.6946 38.1073 22.2093 37.9062 21.7032 37.9062C21.1971 37.9062 20.7117 38.1073 20.3538 38.4652C19.996 38.823 19.7949 39.3084 19.7949 39.8145V44.3356C19.7999 46.0353 20.4773 47.664 21.6792 48.8658C22.8811 50.0677 24.5097 50.7451 26.2094 50.75H38.7915C40.4912 50.7451 42.1199 50.0677 43.3218 48.8658C44.5237 47.664 45.2011 46.0353 45.206 44.3356ZM37.2504 33.6787L30.3393 40.5899C30.0382 40.8888 29.631 41.0562 29.2067 41.0554C28.7825 41.0547 28.3759 40.8858 28.0759 40.5858C27.7759 40.2858 27.607 39.8792 27.6063 39.4549C27.6055 39.0307 27.7729 38.6234 28.0718 38.3224L32.677 33.7171H23.6348C23.2096 33.7171 22.8017 33.5482 22.501 33.2475C22.2003 32.9468 22.0314 32.539 22.0314 32.1138C22.0314 31.6885 22.2003 31.2807 22.501 30.98C22.8017 30.6793 23.2096 30.5104 23.6348 30.5104H32.6772L28.0719 25.9051C27.9222 25.7564 27.8032 25.5796 27.7219 25.3849C27.6406 25.1901 27.5986 24.9812 27.5982 24.7702C27.5978 24.5591 27.6391 24.3501 27.7197 24.155C27.8003 23.96 27.9186 23.7828 28.0678 23.6335C28.2171 23.4843 28.3943 23.366 28.5893 23.2854C28.7844 23.2048 28.9934 23.1635 29.2045 23.1639C29.4155 23.1643 29.6244 23.2063 29.8192 23.2876C30.0139 23.3689 30.1907 23.4879 30.3394 23.6376L37.2475 30.5457C38.2629 31.599 38.1288 32.8 37.2504 33.6787Z" fill="white"/>
</g>
<defs>
<clipPath id="clip0_34649_15550">
<rect width="64" height="64" fill="white" transform="translate(0.5)"/>
</clipPath>
</defs>
</svg>
