<svg width="24" height="24" viewBox="0 0 24 24" fill="none" xmlns="http://www.w3.org/2000/svg">
<path d="M11.9997 14.3333C13.4724 14.3333 14.6663 13.1394 14.6663 11.6667C14.6663 10.1939 13.4724 9 11.9997 9C10.5269 9 9.33301 10.1939 9.33301 11.6667C9.33301 13.1394 10.5269 14.3333 11.9997 14.3333Z" fill="#22C55E"/>
<path d="M16.7098 6.92239C15.4511 5.66306 13.7768 4.96973 11.9958 4.96973C10.2148 4.96973 8.54077 5.66306 7.28177 6.92239C6.02243 8.18106 5.3291 9.85539 5.3291 11.6364C5.3291 13.4174 6.02243 15.0914 7.28177 16.3504C7.42174 16.4899 7.59988 16.5848 7.79373 16.6232C7.98757 16.6616 8.18844 16.6417 8.37101 16.5661C8.55358 16.4905 8.70968 16.3625 8.81961 16.1983C8.92955 16.0341 8.98841 15.841 8.98877 15.6434C8.98877 15.3761 8.88444 15.1247 8.69577 14.9364C7.8141 14.0547 7.32877 12.8831 7.32877 11.6367C7.32877 10.3904 7.8141 9.21839 8.69577 8.33706C9.57744 7.45573 10.7491 6.97006 11.9954 6.97006C13.2418 6.97006 14.4138 7.45539 15.2951 8.33706C16.1764 9.21873 16.6621 10.3904 16.6621 11.6367C16.6621 12.8831 16.1768 14.0551 15.2951 14.9361C15.2019 15.0287 15.1281 15.139 15.0778 15.2604C15.0275 15.3818 15.0018 15.512 15.0021 15.6434C15.0021 15.9104 15.1064 16.1617 15.2951 16.3504C15.4838 16.5391 15.7351 16.6434 16.0021 16.6434C16.2691 16.6434 16.5204 16.5391 16.7091 16.3504C17.9684 15.0917 18.6618 13.4174 18.6618 11.6364C18.6618 9.85539 17.9691 8.18106 16.7098 6.92239Z" fill="#22C55E"/>
<path d="M19.0663 4.56499C15.168 0.665994 8.82333 0.666327 4.92433 4.56499C3.03833 6.45099 2 8.96199 2 11.636C2 14.31 3.03833 16.8213 4.92433 18.707C5.31433 19.097 5.94833 19.097 6.33833 18.707C6.72833 18.317 6.72833 17.683 6.33833 17.293C3.21967 14.174 3.21967 9.09833 6.33833 5.97933C9.45767 2.85999 14.5327 2.86066 17.652 5.97933C20.7707 9.09833 20.7707 14.174 17.652 17.293C17.5125 17.433 17.4176 17.6112 17.3792 17.805C17.3408 17.9989 17.3607 18.1998 17.4364 18.3824C17.512 18.565 17.6401 18.7211 17.8043 18.831C17.9686 18.9409 18.1617 18.9997 18.3593 19C18.6263 19 18.8777 18.8957 19.0663 18.707C20.9523 16.8213 21.9907 14.3103 21.9907 11.636C21.9907 8.96166 20.9523 6.45099 19.0663 4.56499Z" fill="#22C55E"/>
<path d="M12.6667 14.6667H11.3333C11.2449 14.6667 11.1601 14.7019 11.0976 14.7644C11.0351 14.8269 11 14.9117 11 15.0001V21.3334C11 21.8847 11.4487 22.3334 12 22.3334C12.5513 22.3334 13 21.8847 13 21.3334V15.0001C13 14.9117 12.9649 14.8269 12.9024 14.7644C12.8399 14.7019 12.7551 14.6667 12.6667 14.6667Z" fill="#22C55E"/>
</svg>
