<svg width="36" height="36" viewBox="0 0 36 36" fill="none" xmlns="http://www.w3.org/2000/svg">
<rect width="36" height="36" rx="8" fill="#22C55E" fill-opacity="0.1"/>
<g clip-path="url(#clip0_35357_566)">
<path d="M24.9494 16.9956H29.9998C29.5148 11.1518 24.848 6.48506 19.0042 6V11.0504C22.0762 11.4933 24.5065 13.9236 24.9494 16.9956ZM22.9198 19.0042H22.017C21.4616 19.0042 21.0127 18.5543 21.0127 18C21.0127 17.4457 21.4616 16.9958 22.017 16.9958H22.9198C22.5191 15.0314 20.9685 13.4808 19.0042 13.0801V13.983C19.0042 14.5373 18.5553 14.9872 18 14.9872C17.4446 14.9872 16.9957 14.5373 16.9957 13.983V13.0801C15.0314 13.4808 13.4808 15.0314 13.0801 16.9958H13.9829C14.5383 16.9958 14.9872 17.4457 14.9872 18C14.9872 18.5543 14.5383 19.0042 13.9829 19.0042H13.0801C13.4808 20.9686 15.0314 22.5192 16.9957 22.9199V22.017C16.9957 21.4627 17.4446 21.0128 18 21.0128C18.5553 21.0128 19.0042 21.4627 19.0042 22.017V22.9199C20.9685 22.5191 22.5191 20.9686 22.9198 19.0042ZM18 19.0042C17.4456 19.0042 16.9957 18.5543 16.9957 18C16.9957 17.4457 17.4456 16.9958 18 16.9958C18.5543 16.9958 19.0042 17.4457 19.0042 18C19.0042 18.5543 18.5543 19.0042 18 19.0042ZM16.9956 11.0505V6.00009C11.1518 6.48515 6.48506 11.1519 6 16.9957H11.0504C11.4933 13.9237 13.9236 11.4934 16.9956 11.0505ZM11.0505 19.0043H6.00009C6.48515 24.8481 11.1519 29.5149 16.9957 30V24.9495C13.9237 24.5066 11.4934 22.0763 11.0505 19.0043ZM24.9496 19.0042C24.5067 22.0763 22.0764 24.5065 19.0044 24.9494V29.9998C24.8482 29.5148 29.515 24.848 30 19.0042H24.9496V19.0042Z" fill="#22C55E"/>
</g>
<defs>
<clipPath id="clip0_35357_566">
<rect width="24" height="24" fill="white" transform="translate(6 6)"/>
</clipPath>
</defs>
</svg>
