<svg width="20" height="20" viewBox="0 0 20 20" fill="none" xmlns="http://www.w3.org/2000/svg">
<path d="M18.1247 8.64995L16.5872 15.4437C16.5567 15.5858 16.4776 15.7129 16.3635 15.803C16.2495 15.8931 16.1075 15.9407 15.9622 15.9374H3.9872C3.84186 15.9407 3.69994 15.8931 3.58586 15.803C3.47179 15.7129 3.3927 15.5858 3.3622 15.4437L1.8747 8.64995C1.84967 8.53515 1.8575 8.41563 1.8973 8.30508C1.93709 8.19454 2.00724 8.09745 2.0997 8.02495C2.19242 7.95219 2.30381 7.90713 2.42103 7.89497C2.53825 7.8828 2.65653 7.90403 2.7622 7.9562L6.4122 9.72495L9.4372 4.37495C9.49172 4.27876 9.57077 4.19876 9.66629 4.14309C9.76181 4.08743 9.8704 4.05811 9.98095 4.05811C10.0915 4.05811 10.2001 4.08743 10.2956 4.14309C10.3911 4.19876 10.4702 4.27876 10.5247 4.37495L13.5497 9.7312L17.2247 7.94995C17.3311 7.89353 17.4516 7.86907 17.5716 7.87951C17.6916 7.88996 17.8061 7.93486 17.9011 8.00881C17.9962 8.08277 18.0679 8.18263 18.1076 8.29637C18.1472 8.41012 18.1532 8.5329 18.1247 8.64995Z" fill="#0501FF"/>
</svg>
