<svg width="20" height="21" viewBox="0 0 20 21" fill="none" xmlns="http://www.w3.org/2000/svg">
<path d="M19.8413 8.22517C19.7334 8.03031 19.5752 7.86799 19.3832 7.75512C19.1912 7.64225 18.9724 7.58299 18.7497 7.5835H6.90467C6.50533 7.58358 6.11678 7.71318 5.79733 7.95283C5.47789 8.19249 5.24479 8.52928 5.13301 8.91267L2.78842 16.9502C2.66501 17.3733 2.40771 17.7449 2.05514 18.0094C1.70257 18.2738 1.27374 18.4168 0.833008 18.4168H15.728C16.1688 18.4168 16.5977 18.2739 16.9503 18.0094C17.303 17.745 17.5604 17.3733 17.6838 16.9502L19.9347 9.2335C19.987 9.06768 20.0057 8.89311 19.9897 8.71998C19.9738 8.54685 19.923 8.37863 19.8413 8.22517Z" fill="#0501FF"/>
<path d="M1.9875 16.7168L4.33333 8.67933C4.49676 8.12368 4.83532 7.6357 5.29857 7.28807C5.76183 6.94044 6.32499 6.75177 6.90417 6.75016H17.5V6.3335C17.5 5.89147 17.3244 5.46755 17.0118 5.15498C16.6993 4.84242 16.2754 4.66683 15.8333 4.66683H9.48167C9.35748 4.66686 9.23484 4.63919 9.12269 4.58586C9.01054 4.53252 8.91169 4.45485 8.83333 4.3585L8.01417 3.35141C7.81907 3.11152 7.57296 2.91813 7.29374 2.7853C7.01452 2.65246 6.70921 2.58352 6.4 2.5835H1.66667C1.22464 2.5835 0.800716 2.75909 0.488155 3.07165C0.175595 3.38421 0 3.80814 0 4.25016L0 16.7502C0 16.9712 0.0877974 17.1831 0.244078 17.3394C0.400358 17.4957 0.61232 17.5835 0.833333 17.5835C1.09344 17.5828 1.34635 17.498 1.55434 17.3418C1.76234 17.1856 1.91428 16.9664 1.9875 16.7168Z" fill="#0501FF"/>
</svg>
