<svg width="24" height="24" viewBox="0 0 24 24" fill="none" xmlns="http://www.w3.org/2000/svg">
<g clip-path="url(#clip0_35001_835)">
<path d="M11.3816 15.1704H7.72202C7.29359 15.1704 6.94629 14.8231 6.94629 14.3947C6.94629 13.9663 7.29359 13.619 7.72202 13.619H11.3816C11.7354 13.619 12.0232 13.3312 12.0232 12.9774V11.3622C12.0232 10.9337 12.3705 10.5864 12.799 10.5864C13.2274 10.5864 13.5747 10.9338 13.5747 11.3622V12.9774C13.5747 14.1867 12.5909 15.1704 11.3816 15.1704Z" fill="#A69CA7"/>
<path d="M13.574 12.7535V11.3622C13.574 10.9337 13.2267 10.5864 12.7982 10.5864C12.3698 10.5864 12.0225 10.9338 12.0225 11.3622V12.7535H13.574Z" fill="#918291"/>
<path d="M22.9868 8.38872V10.7369C22.9868 11.1653 22.6395 11.5126 22.2111 11.5126H6.21191V8.38867L22.9868 8.38872Z" fill="#433F43"/>
<path d="M6.21191 8.38867H22.9868V10.2419H6.21191V8.38867Z" fill="#333133"/>
<path d="M12.9962 10.2542H10.9999C10.88 10.2542 10.7637 10.2125 10.6712 10.1362C10.5786 10.0599 10.5154 9.95385 10.4924 9.83611L10.3154 8.92969H13.6807L13.5038 9.83611C13.4808 9.95386 13.4176 10.0599 13.325 10.1362C13.2324 10.2125 13.1161 10.2542 12.9962 10.2542Z" fill="#282628"/>
<path d="M7.62207 8.38867V9.61005C7.62207 9.72377 7.6473 9.83608 7.69594 9.93888C7.74458 10.0417 7.81543 10.1324 7.90337 10.2045L9.49843 11.5126L6.09343 19.676C6.0494 19.7815 5.97162 19.8695 5.87227 19.9262C5.77292 19.9828 5.6576 20.0049 5.54434 19.9891L0.668681 19.3056C0.148837 19.2327 -0.150085 18.6754 0.0768369 18.202L2.78691 12.5484C2.93395 12.2416 2.98693 11.8982 2.9392 11.5614C2.89146 11.2246 2.74514 10.9094 2.51865 10.6556C2.12683 10.2165 1.91029 9.6486 1.91031 9.06011V8.38872H7.62207V8.38867Z" fill="#554E55"/>
<path d="M7.94878 10.2419L7.90317 10.2045C7.81523 10.1324 7.74439 10.0416 7.69574 9.93883C7.6471 9.83604 7.62187 9.72373 7.62188 9.61V8.38867H1.91016V9.06006C1.91034 9.47438 2.01795 9.88157 2.22248 10.2419H7.94878Z" fill="#433F43"/>
<path d="M5.14035 11.8471C4.83697 11.7534 4.52103 11.9516 4.47594 12.2659C4.42839 12.5966 4.33062 12.9181 4.18602 13.2192L2.08714 17.5977C2.01149 17.7555 2.11114 17.9412 2.28444 17.9656L4.77125 18.3142C4.82788 18.3221 4.88554 18.3111 4.93521 18.2827C4.98489 18.2544 5.02378 18.2104 5.0458 18.1577L7.17102 13.0625C7.28881 12.7801 7.13699 12.4578 6.84425 12.3687C6.27593 12.196 5.70796 12.0221 5.14035 11.8471Z" fill="#BA7C65"/>
<path d="M7.17056 13.0626L5.04553 18.1578C5.02344 18.2105 4.98454 18.2545 4.93488 18.2828C4.88522 18.3111 4.82758 18.3223 4.77094 18.3145L3.53906 18.1417C3.59012 18.1398 3.63955 18.1232 3.68152 18.0941C3.72349 18.0649 3.75624 18.0244 3.77592 17.9772L5.97698 12.7011C6.08095 12.4513 5.98163 12.1715 5.76131 12.0381C6.12178 12.1488 6.48277 12.2589 6.84375 12.3686C7.13644 12.4576 7.2885 12.7803 7.17056 13.0626Z" fill="#A96A53"/>
<path d="M24.0003 5.79163V8.41279C24.0003 8.69816 23.7689 8.92996 23.4831 8.92996H1.85557C1.5702 8.92996 1.33887 8.69816 1.33887 8.41279V5.79163C1.33887 5.36329 1.68607 5.01608 2.11441 5.01608H3.25212C3.29377 5.01602 3.33471 5.00523 3.37099 4.98477C3.40726 4.9643 3.43766 4.93484 3.45926 4.89922L3.84462 4.25699C3.89063 4.18054 3.95563 4.11728 4.0333 4.07337C4.11098 4.02945 4.19868 4.00636 4.28791 4.00635H6.35421C6.53576 4.00635 6.70385 4.10146 6.79751 4.25699L7.18334 4.89922C7.20479 4.93486 7.23509 4.96435 7.27131 4.98483C7.30752 5.0053 7.34841 5.01607 7.39001 5.01608H11.5197L11.6173 5.51394C11.6421 5.64133 11.7105 5.75612 11.8107 5.83866C11.9108 5.92121 12.0365 5.96637 12.1663 5.96643H18.0287C18.1585 5.96645 18.2843 5.92132 18.3845 5.83876C18.4846 5.7562 18.553 5.64137 18.5778 5.51394L18.6753 5.01608H20.264C20.3191 5.01607 20.3726 4.99725 20.4155 4.96274C20.4585 4.92823 20.4883 4.88009 20.5002 4.82629L20.5905 4.41341C20.6155 4.29807 20.6793 4.19479 20.7712 4.12073C20.8631 4.04667 20.9776 4.0063 21.0956 4.00635H21.4998C21.7427 4.00635 21.9532 4.17585 22.0049 4.41341L22.0953 4.82629C22.1071 4.88008 22.137 4.92821 22.1799 4.96273C22.2229 4.99724 22.2763 5.01606 22.3314 5.01608H23.2247C23.6531 5.01613 24.0003 5.36333 24.0003 5.79163Z" fill="#A69CA7"/>
<path d="M18.4154 6.44899H11.7802C11.5125 6.44899 11.2824 6.25943 11.2311 5.99674L11.0397 5.01616H19.156L18.9645 5.99674C18.9397 6.1241 18.8713 6.23886 18.7711 6.32136C18.6709 6.40386 18.5452 6.44898 18.4154 6.44899ZM22.1371 5.01611H23.2247C23.6534 5.01611 24.0004 5.36313 24.0004 5.79185V8.41235C24.0004 8.69833 23.7687 8.92952 23.4832 8.92952H21.9747C22.0426 8.92958 22.1099 8.91625 22.1726 8.89028C22.2354 8.86431 22.2925 8.82622 22.3405 8.77818C22.3885 8.73014 22.4266 8.67311 22.4526 8.61033C22.4786 8.54756 22.4919 8.48028 22.4918 8.41235V5.79189C22.4919 5.1235 22.1371 5.01611 22.1371 5.01611ZM3.46372 7.97993C3.36767 7.97993 3.27555 7.94177 3.20764 7.87385C3.13972 7.80594 3.10156 7.71382 3.10156 7.61777V6.46919C3.10156 6.37314 3.13972 6.28103 3.20764 6.21311C3.27555 6.14519 3.36767 6.10704 3.46372 6.10704C3.55977 6.10704 3.65188 6.14519 3.7198 6.21311C3.78772 6.28103 3.82588 6.37314 3.82588 6.46919V7.61777C3.82588 7.66533 3.81652 7.71243 3.79832 7.75637C3.78012 7.80031 3.75345 7.84024 3.71982 7.87387C3.68619 7.9075 3.64626 7.93417 3.60232 7.95237C3.55838 7.97057 3.51128 7.97993 3.46372 7.97993ZM4.83819 7.97993C4.74214 7.97993 4.65002 7.94177 4.5821 7.87385C4.51419 7.80594 4.47603 7.71382 4.47603 7.61777V6.46919C4.47603 6.37314 4.51419 6.28103 4.5821 6.21311C4.65002 6.14519 4.74214 6.10704 4.83819 6.10704C4.93424 6.10704 5.02635 6.14519 5.09427 6.21311C5.16219 6.28103 5.20034 6.37314 5.20034 6.46919V7.61777C5.20035 7.66533 5.19099 7.71243 5.17279 7.75637C5.15459 7.80031 5.12791 7.84024 5.09428 7.87387C5.06065 7.9075 5.02073 7.93417 4.97679 7.95237C4.93284 7.97057 4.88575 7.97993 4.83819 7.97993ZM6.2127 7.97993C6.11665 7.97993 6.02454 7.94177 5.95662 7.87385C5.8887 7.80594 5.85055 7.71382 5.85055 7.61777V6.46919C5.85055 6.37314 5.8887 6.28103 5.95662 6.21311C6.02454 6.14519 6.11665 6.10704 6.2127 6.10704C6.30875 6.10704 6.40087 6.14519 6.46879 6.21311C6.5367 6.28103 6.57486 6.37314 6.57486 6.46919V7.61777C6.57487 7.66533 6.5655 7.71243 6.5473 7.75637C6.52911 7.80031 6.50243 7.84024 6.4688 7.87387C6.43517 7.9075 6.39524 7.93417 6.3513 7.95237C6.30736 7.97057 6.26026 7.97993 6.2127 7.97993ZM7.58717 7.97993C7.49112 7.97993 7.39901 7.94177 7.33109 7.87385C7.26317 7.80594 7.22502 7.71382 7.22502 7.61777V6.46919C7.22502 6.37314 7.26317 6.28103 7.33109 6.21311C7.39901 6.14519 7.49112 6.10704 7.58717 6.10704C7.68322 6.10704 7.77534 6.14519 7.84325 6.21311C7.91117 6.28103 7.94933 6.37314 7.94933 6.46919V7.61777C7.94933 7.66533 7.93997 7.71243 7.92177 7.75637C7.90358 7.80031 7.8769 7.84024 7.84327 7.87387C7.80964 7.9075 7.76971 7.93417 7.72577 7.95237C7.68183 7.97057 7.63473 7.97993 7.58717 7.97993ZM8.96164 7.97993C8.86559 7.97993 8.77347 7.94177 8.70556 7.87385C8.63764 7.80594 8.59948 7.71382 8.59948 7.61777V6.46919C8.59948 6.42163 8.60885 6.37454 8.62705 6.3306C8.64525 6.28666 8.67193 6.24674 8.70556 6.21311C8.73919 6.17948 8.77911 6.1528 8.82305 6.1346C8.86699 6.1164 8.91408 6.10704 8.96164 6.10704C9.0092 6.10704 9.05629 6.1164 9.10023 6.1346C9.14417 6.1528 9.18409 6.17948 9.21772 6.21311C9.25135 6.24674 9.27803 6.28666 9.29623 6.3306C9.31443 6.37454 9.3238 6.42163 9.3238 6.46919V7.61777C9.3238 7.66533 9.31444 7.71243 9.29624 7.75637C9.27804 7.80031 9.25137 7.84024 9.21774 7.87387C9.18411 7.9075 9.14418 7.93417 9.10024 7.95237C9.0563 7.97057 9.0092 7.97993 8.96164 7.97993Z" fill="#918291"/>
<path d="M21.5733 10.2547C21.5733 10.3508 21.5351 10.4429 21.4672 10.5108C21.3993 10.5787 21.3072 10.6169 21.2112 10.6169H16.7207L16.0089 11.5127H15.0837L16.2619 10.0292C16.2959 9.98658 16.3391 9.95215 16.3883 9.9285C16.4374 9.90484 16.4913 9.89256 16.5458 9.89258H21.2111C21.2587 9.89255 21.3058 9.90189 21.3497 9.92008C21.3937 9.93827 21.4336 9.96494 21.4673 9.99858C21.5009 10.0322 21.5276 10.0722 21.5458 10.1161C21.564 10.1601 21.5733 10.2072 21.5733 10.2547ZM6.29793 10.9487H6.29469L6.28935 10.9487C6.19329 10.9483 6.10133 10.9097 6.0337 10.8415C5.96607 10.7733 5.9283 10.681 5.92871 10.5849C5.92912 10.4889 5.96768 10.3969 6.03589 10.3293C6.1041 10.2617 6.19638 10.2239 6.29244 10.2243H6.29568L6.30102 10.2244C6.34858 10.2248 6.3956 10.2346 6.43938 10.2531C6.48316 10.2717 6.52285 10.2988 6.55619 10.3327C6.58952 10.3666 6.61585 10.4068 6.63366 10.4509C6.65147 10.495 6.66041 10.5422 6.65999 10.5898C6.65916 10.6852 6.62065 10.7765 6.55284 10.8438C6.48503 10.911 6.39341 10.9487 6.29793 10.9487Z" fill="#282628"/>
</g>
<defs>
<clipPath id="clip0_35001_835">
<rect width="24" height="24" fill="white"/>
</clipPath>
</defs>
</svg>
